<svg height="683.65741" viewBox="0 0 758.6969 683.65741" width="758.6969" xmlns="http://www.w3.org/2000/svg"><path d="m948.76455 379.1713c0 118.6-76.18 219.4-182.28 256.14a272.75793 272.75793 0 0 1 -132.97 11.26q-6.345-1.035-12.6-2.38-8.47494-1.79993-16.75-4.14c-113.91-32.06-197.4-136.72-197.4-260.88 0-149.67 121.33-271 271-271s271 121.32994 271 271z" fill="#e6e6e6" transform="translate(-220.65155 -108.1713)"/><path d="m508.0278 462.81409a2.0429 2.0429 0 0 0 -.83917 2.76159l101.88879 190.83945a2.04291 2.04291 0 0 0 2.7616.83917l144.02978-76.89721a2.04291 2.04291 0 0 0 .83917-2.7616l-101.88885-190.83949a2.04292 2.04292 0 0 0 -2.7616-.83917z" fill="#3f3d56" transform="translate(-220.65155 -108.1713)"/><path d="m521.4158 468.39066 93.23865 174.63452 127.82635-68.24463-93.23865-174.63655zm-8.09979 4.324.01794-.009-.02.01z" fill="#fff" transform="translate(-220.65155 -108.1713)"/><path d="m553.64547 487.59c-1.98584 1.06024-2.40863 4.15533-.944 6.89846s4.27154 4.11387 6.25744 3.05359l93.61933-49.98318c1.98583-1.06024 2.40863-4.15534.944-6.89847s-4.27161-4.11383-6.25745-3.05359z" fill="#960550" transform="translate(-220.65155 -108.1713)"/><path d="m565.18 509.19446c-1.98584 1.06024-2.40863 4.1553-.944 6.89847s4.27155 4.11383 6.25745 3.05358l93.61932-49.98318c1.98584-1.06024 2.40863-4.15533.944-6.89847s-4.2716-4.11386-6.25744-3.05359z" fill="#960550" transform="translate(-220.65155 -108.1713)"/><path d="m576.71463 530.79892c-1.98584 1.06024-2.40863 4.15533-.944 6.89844s4.27154 4.11383 6.25744 3.05359l93.61933-49.98319c1.98584-1.06024 2.40863-4.15533.944-6.89847s-4.27161-4.11383-6.25745-3.05359z" fill="#960550" transform="translate(-220.65155 -108.1713)"/><path d="m588.24923 552.40335c-1.98584 1.06024-2.40863 4.15534-.944 6.89844s4.27155 4.11383 6.25745 3.05359l93.61926-49.9831c1.98584-1.06024 2.40863-4.15533.944-6.89846s-4.2716-4.11383-6.25744-3.05359z" fill="#960550" transform="translate(-220.65155 -108.1713)"/><path d="m599.78378 574.00784c-1.98584 1.06024-2.40863 4.15534-.944 6.89844s4.27155 4.11383 6.25745 3.05359l93.61932-49.98315c1.98584-1.06025 2.40863-4.15534.944-6.89844s-4.2716-4.11383-6.25744-3.05359z" fill="#960550" transform="translate(-220.65155 -108.1713)"/><path d="m397.312 272.193 84.83 5.18 23.757-70.848-74.405-15.721z" fill="#2f2e41"/><circle cx="458.4913" cy="220.35056" fill="#ffb8b8" r="33.92727"/><path d="m766.26455 632.6713.22 2.64a272.75821 272.75821 0 0 1 -132.97 11.26l-12.6-2.38 11.99-26.59 7.86-17.43-2.83-60.3-.3-6.24-.37-7.96 5.12-.03 36.4-.22 34.69-.22 5.29-.03c33.16999 40.79998 60.53998 73.95996 47.5 107.5z" fill="#2f2e41" transform="translate(-220.65155 -108.1713)"/><path d="m718.26455 524.6713-81 9-3-56c-9.50585-24.24439-3.23083-45.88407 16.49769-65.30332l4.01074-15.87582a23.504 23.504 0 0 1 17.36151-17.112c13.25891-7.60428 28.278-11.22876 45.13-10.7088a33.67559 33.67559 0 0 1 21.32451 33.98664c-3.48552 44.00957-9.74217 85.20647-20.32445 122.0133z" fill="#960550" transform="translate(-220.65155 -108.1713)"/><path d="m653.4772 288.437s-17.54272 6.40186-17.99329 29.67661a42.021 42.021 0 0 0 1.55335 11.58923c1.13739 4.27759 2.05005 13.55884-5.59949 25.931a239.88188 239.88188 0 0 0 -13.53314 24.91406l19.75293 1.906 3.2663-32.74487a162.534 162.534 0 0 1 11.61132-46.16703l.12769-.30758s9.06207 15.75033 26.28522 15.26516l-6.3244-5.97784s21.572 8.12366 33.30212 9.7547a7.42868 7.42868 0 0 1 4.47388 12.35312q-.10327.113-.21082.2268c-7.1734 7.58927-21.451 25.22828-12.45819 38.51816s1.71539 17.18848 1.71539 17.18848l13.32453-7.76254 6.04718-3.864.13861 4.9209 31.88189-4.5917s8.57691-1.47281-10.46557-21.86682c0 0-5.10169-7.98426-3.16705-15.049a35.3463 35.3463 0 0 0 .87762-16.56161c-4.78375-22.94623-22.29498-68.34087-84.60608-37.35123z" fill="#2f2e41" transform="translate(-220.65155 -108.1713)"/><ellipse cx="457.113" cy="674.15746" fill="#e6e6e6" rx="122" ry="7"/><g transform="translate(-220.65155 -108.1713)"><path d="m221.39413 430.704a1.001 1.001 0 0 0 -.70884 1.22376l27.29014 102.42678a1.001 1.001 0 0 0 1.22374.70881l77.30324-20.59632a1.001 1.001 0 0 0 .70883-1.22375l-27.2901-102.42676a1.001 1.001 0 0 0 -1.22375-.70883z" fill="#f2f2f2"/><path d="m240.38952 447.62c-1.06584.284-1.61326 1.71335-1.221 3.18564s1.57831 2.43979 2.64415 2.15583l50.2471-13.38764c1.06583-.284 1.61328-1.71335 1.221-3.18561s-1.57831-2.43979-2.64417-2.15582z" fill="#fff"/><path d="m243.479 459.21545c-1.06584.284-1.61327 1.71335-1.221 3.18561s1.57831 2.43979 2.64415 2.15582l50.2471-13.38763c1.06582-.284 1.61328-1.71335 1.221-3.18564s-1.57831-2.43979-2.64417-2.15582z" fill="#fff"/><path d="m246.56843 470.81094c-1.06584.284-1.61326 1.71335-1.221 3.18564s1.57831 2.43979 2.64415 2.15582l50.24712-13.3876c1.06582-.284 1.61328-1.71335 1.221-3.18564s-1.5783-2.43979-2.64416-2.15582z" fill="#fff"/><path d="m249.65788 482.40643c-1.06584.284-1.61327 1.71335-1.221 3.18564s1.57831 2.43979 2.64415 2.15582l50.24711-13.38763c1.06583-.284 1.61328-1.71335 1.221-3.18564s-1.57831-2.43979-2.64416-2.15582z" fill="#fff"/><path d="m252.74733 494.00192c-1.06584.284-1.61327 1.71335-1.221 3.18561s1.57831 2.43979 2.64415 2.15582l50.24712-13.3876c1.06583-.284 1.61328-1.71335 1.221-3.18564s-1.57831-2.43979-2.64417-2.15582z" fill="#fff"/><path d="m255.83677 505.59738c-1.06584.284-1.61326 1.71335-1.221 3.18564s1.57831 2.43979 2.64417 2.15582l50.2471-13.38763c1.06582-.284 1.61328-1.71335 1.221-3.18561s-1.57831-2.43979-2.64417-2.15582z" fill="#fff"/><path d="m418.94809 791.597c0 .12774.44824.23168 1 .23168h106c.55175 0 1-.104 1-.23168v-18.53661c0-.12774-.44825-.23169-1-.23169h-106c-.55176 0-1 .104-1 .23169z" fill="#f2f2f2"/><path d="m440.1842 788.35318c0 .25555 1.24024.46344 2.76389.46344s2.76388-.20782 2.76388-.46344v-12.04883c0-.25555-1.24023-.46344-2.76388-.46344s-2.76389.20783-2.76389.46344z" fill="#fff"/><path d="m452.1842 788.35318c0 .25555 1.24024.46344 2.76389.46344s2.76388-.20782 2.76388-.46344v-12.04883c0-.25555-1.24023-.46344-2.76388-.46344s-2.76389.20783-2.76389.46344z" fill="#fff"/><path d="m464.1842 788.35318c0 .25555 1.24024.46344 2.76389.46344s2.76388-.20782 2.76388-.46344v-12.04883c0-.25555-1.24023-.46344-2.76388-.46344s-2.76389.20783-2.76389.46344z" fill="#fff"/><path d="m476.1842 788.35318c0 .25555 1.24024.46344 2.76389.46344s2.76388-.20782 2.76388-.46344v-12.04883c0-.25555-1.24023-.46344-2.76388-.46344s-2.76389.20783-2.76389.46344z" fill="#fff"/><path d="m488.1842 788.35318c0 .25555 1.24024.46344 2.76389.46344s2.76388-.20782 2.76388-.46344v-12.04883c0-.25555-1.24023-.46344-2.76388-.46344s-2.76389.20783-2.76389.46344z" fill="#fff"/><path d="m500.1842 788.35318c0 .25555 1.24024.46344 2.76389.46344s2.76388-.20782 2.76388-.46344v-12.04883c0-.25555-1.24023-.46344-2.76388-.46344s-2.76389.20783-2.76389.46344z" fill="#fff"/><path d="m224.22973 356.78873a1.001 1.001 0 0 0 -.41116 1.35312l49.92343 93.50747a1.001 1.001 0 0 0 1.35312.41117l70.57169-37.67807a1.001 1.001 0 0 0 .41116-1.35312l-49.92346-93.50748a1.001 1.001 0 0 0 -1.35312-.41116z" fill="#e6e6e6"/><path d="m230.78959 359.52112 45.68505 85.56738 62.63236-33.4385-45.685-85.5683zm-3.96875 2.11865.00879-.00439-.00976.00488z" fill="#fff"/><path d="m246.58148 368.92844c-.973.5195-1.18018 2.036-.46257 3.38009s2.093 2.01569 3.066 1.49619l45.87161-24.49072c.973-.5195 1.18017-2.036.46255-3.3801s-2.093-2.01569-3.066-1.49619z" fill="#960550"/><path d="m252.2332 379.51419c-.973.5195-1.18018 2.036-.46257 3.3801s2.093 2.01568 3.066 1.49618l45.8716-24.49075c.973-.5195 1.18017-2.036.46255-3.3801s-2.093-2.01568-3.066-1.49618z" fill="#960550"/><path d="m257.88492 390.1c-.973.5195-1.18018 2.036-.46256 3.38009s2.093 2.01569 3.066 1.49619l45.87164-24.49078c.973-.5195 1.18018-2.036.46256-3.38009s-2.093-2.01569-3.066-1.49619z" fill="#960550"/><path d="m263.53662 400.68567c-.973.5195-1.18018 2.036-.46256 3.3801s2.093 2.01568 3.066 1.49618l45.87159-24.49075c.973-.5195 1.18017-2.036.46255-3.3801s-2.093-2.01568-3.066-1.49618z" fill="#960550"/><path d="m269.18832 411.27145c-.973.5195-1.18017 2.036-.46255 3.3801s2.093 2.01569 3.066 1.49619l45.87162-24.49074c.973-.5195 1.18014-2.036.46255-3.38009s-2.093-2.01569-3.066-1.49619z" fill="#960550"/><path d="m274.84 421.85718c-.973.5195-1.18017 2.036-.46255 3.38009s2.093 2.01569 3.066 1.49619l45.87161-24.49075c.973-.5195 1.18018-2.036.46256-3.3801s-2.093-2.01569-3.066-1.49619z" fill="#960550"/><path d="m909.98428 595.74619a1.001 1.001 0 0 0 -1.36969.35217l-53.92759 91.25683a1.001 1.001 0 0 0 .35217 1.36969l68.87309 40.70012a1.001 1.001 0 0 0 1.36969-.35218l53.92761-91.25682a1.001 1.001 0 0 0 -.35217-1.36969z" fill="#e6e6e6"/><path d="m911.06021 602.77048-49.348 83.50854 61.12414 36.12171 49.34882-83.5091zm-3.873-2.289.0083.00524-.00927-.00579z" fill="#fff"/><path d="m911.23318 621.15115c-.94958-.56115-2.35278.05024-3.12793 1.362s-.63391 2.83582.31568 3.397l44.76751 26.45507c.94959.56116 2.35279-.05023 3.128-1.362s.63392-2.83581-.31567-3.397z" fill="#960550"/><path d="m905.1282 631.48215c-.94958-.56116-2.35278.05023-3.128 1.362s-.63391 2.83581.31567 3.397l44.76753 26.45505c.94959.56115 2.35279-.05023 3.128-1.362s.63391-2.83582-.31567-3.397z" fill="#960550"/><path d="m899.02316 641.81314c-.94958-.56116-2.35278.05023-3.128 1.362s-.63391 2.83582.31567 3.397l44.76752 26.45508c.94959.56116 2.35278-.05023 3.128-1.362s.63391-2.83581-.31567-3.397z" fill="#960550"/><path d="m892.91818 652.144c-.94965-.56115-2.35278.05023-3.128 1.362s-.63391 2.83582.31567 3.397l44.76752 26.455c.94965.56116 2.35278-.05023 3.128-1.362s.63391-2.83581-.31567-3.397z" fill="#960550"/><path d="m886.81314 662.475c-.94959-.56116-2.35278.05023-3.128 1.362s-.63391 2.83581.31567 3.397l44.76752 26.455c.94958.56115 2.35278-.05024 3.128-1.362s.63391-2.83582-.31567-3.397z" fill="#960550"/><path d="m880.7081 672.80606c-.94959-.56116-2.35279.05023-3.128 1.362s-.63391 2.83582.31567 3.397l44.76752 26.455c.94958.56116 2.35278-.05023 3.128-1.362s.63391-2.83581-.31568-3.397z" fill="#960550"/><path d="m661.26438 429.67135-1.03955 6.44-10.96045 67.56-6.87988 21.97-2.41992 7.73-2.02979 6.5-24.67041 78.8-6.76855 15.90265a18.99473 18.99473 0 1 0 22.21338 7.01306l48.28564-112.32569 1.78955-3.84 5.48-11.75 10.3501-78.09.6499-4.91z" fill="#ffb8b8"/><path d="m701.26455 437.6713c-15.71569-5.6474-30.79174-6.24772-45 0l4.63746-40.19516a19.17077 19.17077 0 0 1 18.15216-19.7938 19.17079 19.17079 0 0 1 20.15191 18.13666l.00336.06595z" fill="#960550"/></g></svg>