<svg height="455.48829" viewBox="0 0 580.10118 455.48829" width="580.10118" xmlns="http://www.w3.org/2000/svg"><circle cx="452.81963" cy="117.45604" fill="#960550" r="53.51916"/><path d="m766.70188 670.55771v-123.01465a6.50752 6.50752 0 0 1 6.5-6.5h14.75927a6.50752 6.50752 0 0 1 6.5 6.5v123.01465a6.50753 6.50753 0 0 1 -6.5 6.5h-14.75927a6.50753 6.50753 0 0 1 -6.5-6.5z" fill="#2f2e41" transform="translate(-309.94941 -222.25585)"/><path d="m735.50949 670.55771v-123.01465a6.50753 6.50753 0 0 1 6.5-6.5h14.75977a6.50753 6.50753 0 0 1 6.5 6.5v123.01465a6.50753 6.50753 0 0 1 -6.5 6.5h-14.75977a6.50753 6.50753 0 0 1 -6.5-6.5z" fill="#2f2e41" transform="translate(-309.94941 -222.25585)"/><path d="m723.34592 555.005v-108.9444a40.03121 40.03121 0 0 1 40.03121-40.03121h.00008a40.03121 40.03121 0 0 1 40.03121 40.03121v108.9444a6.5 6.5 0 0 1 -6.5 6.5h-67.0625a6.5 6.5 0 0 1 -6.5-6.5z" fill="#2f2e41" transform="translate(-309.94941 -222.25585)"/><path d="m717.57346 363.37021.05566-2c-3.7207-.10352-7.001-.33692-9.46582-2.1377a6.14794 6.14794 0 0 1 -2.38134-4.52832 3.51432 3.51432 0 0 1 1.15283-2.89453c1.63623-1.38184 4.269-.93457 6.188-.05469l1.65478.75879-3.17334-23.19043-1.98144.27149 2.69921 19.72656c-2.60742-.7666-5.02343-.43652-6.67822.96094a5.471 5.471 0 0 0 -1.86035 4.49218 8.13266 8.13266 0 0 0 3.2002 6.07325c3.16698 2.31445 7.2827 2.42968 10.58983 2.52246z" fill="#2f2e41" transform="translate(-309.94941 -222.25585)"/><path d="m413.10256 109.04014h10.77148v2h-10.77148z" fill="#2f2e41"/><g transform="translate(-309.94941 -222.25585)"><path d="m783.94109 554.92953a6.454 6.454 0 0 1 -2.09233-4.51374l-5.09556-122.90769a6.49951 6.49951 0 0 1 6.22489-6.7636l14.74722-.61181a6.50621 6.50621 0 0 1 6.763 6.22529l5.09587 122.90874a6.50779 6.50779 0 0 1 -6.22537 6.76352l-14.74657.61092a6.56066 6.56066 0 0 1 -1.40471-.09143 6.45254 6.45254 0 0 1 -3.26644-1.6202z" fill="#960550"/><path d="m802.75925 471.74415h-24a6.50737 6.50737 0 0 1 -6.5-6.5v-34a18.5 18.5 0 0 1 37 0v34a6.50737 6.50737 0 0 1 -6.5 6.5z" fill="#2f2e41"/><path d="m648.63821 517.29252-9.40872-11.37152a6.50781 6.50781 0 0 1 .86443-9.15168l94.78089-78.41626a6.50409 6.50409 0 0 1 9.15129.86413l9.40851 11.37255a6.49953 6.49953 0 0 1 -.86482 9.15138l-94.7799 78.41588a6.50668 6.50668 0 0 1 -8.1442.1187 6.561 6.561 0 0 1 -1.00748-.98318z" fill="#960550"/><path d="m718.53461 466.21664-15.20318-18.5705a6.50737 6.50737 0 0 1 .912-9.147l26.3082-21.53783a18.5 18.5 0 1 1 23.43824 28.62951l-26.30821 21.53784a6.50736 6.50736 0 0 1 -9.14705-.91202z" fill="#2f2e41"/><path d="m776.18661 348.77336c2.78683-4.65587 4.96791-9.7857 3.93265-15.30212-.92443-4.9259-4.46936-8.76216-9.56673-9.26567-3.06967-.30322-6.12471.51626-9.12294 1.04994a34.24565 34.24565 0 0 1 -7.4479.48247 36.994 36.994 0 0 1 -14.45115-3.66415 35.46926 35.46926 0 0 1 -19.05641-22.33138c-3.04174-11.0738-.78337-23.64867 6.44032-32.66261l-2.50708-.6619 3.26431 10.72432a1.51518 1.51518 0 0 0 2.2035.89644 51.66423 51.66423 0 0 1 40.20064-6.42726 48.947 48.947 0 0 1 11.031 4.24282c1.70394.90591 3.22136-1.68277 1.51416-2.59041a54.69734 54.69734 0 0 0 -42.91465-3.28751 52.21418 52.21418 0 0 0 -11.34528 5.47195l2.2035.89645-3.26431-10.72432a1.512 1.512 0 0 0 -2.50708-.6619 40.20718 40.20718 0 0 0 -8.24121 30.48283 37.94018 37.94018 0 0 0 16.42865 26.31876 40.45781 40.45781 0 0 0 30.55369 6.14207c2.9359-.56438 6.26536-1.3723 9.146-.14293a7.90016 7.90016 0 0 1 4.234 5.20761c1.63237 5.53132-1.14517 10.78409-3.98245 15.38331z" fill="#2f2e41"/><path d="m749.37571 453.99659-.03711-.00049a2.46566 2.46566 0 0 1 -2.39893-1.92725l.19556-41.66845a2.5351 2.5351 0 0 1 1.40039-2.853c7.25342-3.40723 14.74853-3.86523 22.91333-1.39746a2.5016 2.5016 0 0 1 1.70654 3.04248l-21.36549 42.94382a2.46505 2.46505 0 0 1 -2.41429 1.86035z" fill="#ccc"/><path d="m889.05059 677.74415h-248a1 1 0 0 1 0-2h248a1 1 0 0 1 0 2z" fill="#3f3d56"/><path d="m645.94941 533.5379h-186a9.51081 9.51081 0 0 1 -9.5-9.5v-138a9.51081 9.51081 0 0 1 9.5-9.5h186a9.51081 9.51081 0 0 1 9.5 9.5v138a9.51081 9.51081 0 0 1 -9.5 9.5z" fill="#fff"/><path d="m484.02656 466.94756 35.97119.59034h20.95166a3.50409 3.50409 0 0 0 3.5-3.5v-1.22315l-18.0415-19.39941a3.50037 3.50037 0 0 0 -5.03785-.09131l-17.74389 17.74414a2.50234 2.50234 0 0 1 -3.53418.00147l-2.62622-2.62208a3.50286 3.50286 0 0 0 -4.949.00245z" fill="#960550"/><path d="m645.94941 533.5379h-186a9.51081 9.51081 0 0 1 -9.5-9.5v-138a9.51081 9.51081 0 0 1 9.5-9.5h186a9.51081 9.51081 0 0 1 9.5 9.5v138a9.51081 9.51081 0 0 1 -9.5 9.5zm-186-154a6.50744 6.50744 0 0 0 -6.5 6.5v138a6.50745 6.50745 0 0 0 6.5 6.5h186a6.50737 6.50737 0 0 0 6.5-6.5v-138a6.50736 6.50736 0 0 0 -6.5-6.5z" fill="#3f3d56"/><path d="m624.94941 401.0379h-144a3 3 0 0 1 0-6h144a3 3 0 0 1 0 6z" fill="#3f3d56"/><path d="m625.44941 417.5379h-144a3 3 0 0 1 0-6h144a3 3 0 0 1 0 6z" fill="#3f3d56"/><path d="m625.94941 434.0379h-69a3 3 0 0 1 0-6h69a3 3 0 0 1 0 6z" fill="#3f3d56"/><path d="m626.44941 450.5379h-69a3 3 0 0 1 0-6h69a3 3 0 0 1 0 6z" fill="#3f3d56"/><path d="m626.94941 467.0379h-69a3 3 0 0 1 0-6h69a3 3 0 0 1 0 6z" fill="#3f3d56"/><path d="m627.44941 483.5379h-144a3 3 0 0 1 0-6h144a3 3 0 0 1 0 6z" fill="#3f3d56"/><path d="m627.94941 500.0379h-144a3 3 0 0 1 0-6h144a3 3 0 0 1 0 6z" fill="#3f3d56"/><path d="m628.44941 516.5379h-144a3 3 0 1 1 0-6h144a3 3 0 0 1 0 6z" fill="#3f3d56"/><path d="m540.94941 468.0379h-56a4.91607 4.91607 0 0 1 -2.38415-.60987h-.0138l-.25415-.15332a4.98014 4.98014 0 0 1 -2.3479-4.23681v-30a5.0058 5.0058 0 0 1 5-5h56a5.0058 5.0058 0 0 1 5 5v30a5.00581 5.00581 0 0 1 -5 5zm-57.71448-2.54053.14356.08838a2.90595 2.90595 0 0 0 1.57092.45215h56a3.00336 3.00336 0 0 0 3-3v-30a3.00335 3.00335 0 0 0 -3-3h-56a3.00336 3.00336 0 0 0 -3 3v30a2.98735 2.98735 0 0 0 1.28552 2.45947z" fill="#3f3d56"/><path d="m312.093 555.61909a2.72169 2.72169 0 0 0 -1.14858 4.76333l12.027 9.87275a1.76913 1.76913 0 0 1 .42864.52922 1.66265 1.66265 0 0 1 .16693.65507l.85539 18.2321a2.66045 2.66045 0 0 0 2.10809 2.52686l.02125.0047a2.65675 2.65675 0 0 0 2.97482-1.36325l4.27014-7.89832a1.637 1.637 0 0 1 1.457-.84713 1.58244 1.58244 0 0 1 1.16291.50788l20.84741 21.98184a2.70136 2.70136 0 0 0 2.38105.81642 2.72859 2.72859 0 0 0 2.02671-1.484l30.01461-60.95252a2.71985 2.71985 0 0 0 -3.01526-3.86364l-.98243.21143-75.59576 16.30722zm-.46176 3.924a1.63482 1.63482 0 0 1 .69408-2.85914l75.57216-16.30137 1.00577-.21734a1.63542 1.63542 0 0 1 1.80965 2.31612l-30.01459 60.95254a1.63144 1.63144 0 0 1 -2.64486.40048l-20.84719-21.98172a2.6071 2.6071 0 0 0 -.70984-.54127l52.41163-38.49987a1.08883 1.08883 0 0 0 -.90759-1.93827.94891.94891 0 0 0 -.1751.06145l-63.74376 28.90892a2.68239 2.68239 0 0 0 -.42336-.42772l-12.027-9.87276z" fill="#e6e6e6"/><path d="m312.093 555.61909a2.72169 2.72169 0 0 0 -1.14858 4.76333l12.027 9.87275a1.76913 1.76913 0 0 1 .42864.52922 1.66265 1.66265 0 0 1 .16693.65507l.85539 18.2321a2.66045 2.66045 0 0 0 2.10809 2.52686l.02125.0047a2.65675 2.65675 0 0 0 2.97482-1.36325l4.27014-7.89832a1.637 1.637 0 0 1 1.457-.84713 1.58244 1.58244 0 0 1 1.16291.50788l20.84741 21.98184a2.70136 2.70136 0 0 0 2.38105.81642 2.72859 2.72859 0 0 0 2.02671-1.484l30.01461-60.95252a2.71985 2.71985 0 0 0 -3.01526-3.86364l-.98243.21143-75.59576 16.30722zm-.46176 3.924a1.63482 1.63482 0 0 1 .69408-2.85914l75.57216-16.30137 1.00577-.21734a1.63542 1.63542 0 0 1 1.80965 2.31612l-30.0146 60.95252a1.63145 1.63145 0 0 1 -2.64486.40048l-20.8472-21.98172a2.607 2.607 0 0 0 -.70984-.54127 2.64569 2.64569 0 0 0 -1.23539-.30679c-.06067-.00228-.12254.00074-.18464.00367l-.00519-.00115a2.71289 2.71289 0 0 0 -2.22918 1.4169l-4.27133 7.90362a1.58273 1.58273 0 0 1 -1.78924.81255l-.01064-.00236a1.57923 1.57923 0 0 1 -1.26292-1.51569l-.85515-18.23205a2.57268 2.57268 0 0 0 -.08564-.57026l.00118-.00531a2.60723 2.60723 0 0 0 -.19723-.517 2.52685 2.52685 0 0 0 -.28948-.45391 2.68239 2.68239 0 0 0 -.42336-.42772l-12.027-9.87276z" fill="#ccc"/><path d="m324.08158 569.84359 63.74374-28.90892a.94853.94853 0 0 1 .17511-.06145 1.08883 1.08883 0 0 1 .90758 1.93827l-52.41162 38.49985-.92476.68075-.64128-.87693.14083-.10806.00519.00115 53.18519-39.07482-63.69327 28.88106-.00118.00531-.2775.12241-.44921-.99045z" fill="#ccc"/><path d="m691.80587 586.61909-75.59576-16.30722-.98243-.21143a2.71985 2.71985 0 0 0 -3.01526 3.86364l30.01458 60.95252a2.72859 2.72859 0 0 0 2.02672 1.484 2.70135 2.70135 0 0 0 2.381-.81642l20.84742-21.98184a1.58244 1.58244 0 0 1 1.16291-.50788 1.637 1.637 0 0 1 1.457.84713l4.27014 7.89832a2.65675 2.65675 0 0 0 2.97482 1.36325l.02125-.0047a2.66045 2.66045 0 0 0 2.10809-2.52686l.85539-18.2321a1.66265 1.66265 0 0 1 .16693-.65507 1.76913 1.76913 0 0 1 .42864-.52922l12.02705-9.87275a2.72169 2.72169 0 0 0 -1.14858-4.76333zm.46174 3.924-12.027 9.87276a2.68281 2.68281 0 0 0 -.42336.42772l-63.74378-28.90887a.94927.94927 0 0 0 -.17511-.06145 1.08883 1.08883 0 0 0 -.90758 1.93827l52.41162 38.49987a2.6071 2.6071 0 0 0 -.70984.54127l-20.84719 21.98172a1.63144 1.63144 0 0 1 -2.64486-.40048l-30.01451-60.95251a1.63542 1.63542 0 0 1 1.80965-2.31612l1.00577.21734 75.57211 16.30139a1.63482 1.63482 0 0 1 .69408 2.85914z" fill="#e6e6e6"/><path d="m691.80587 586.61909-75.59576-16.30722-.98243-.21143a2.71985 2.71985 0 0 0 -3.01526 3.86364l30.01458 60.95252a2.72859 2.72859 0 0 0 2.02672 1.484 2.70135 2.70135 0 0 0 2.381-.81642l20.84742-21.98184a1.58244 1.58244 0 0 1 1.16291-.50788 1.637 1.637 0 0 1 1.457.84713l4.27014 7.89832a2.65675 2.65675 0 0 0 2.97482 1.36325l.02125-.0047a2.66045 2.66045 0 0 0 2.10809-2.52686l.85539-18.2321a1.66265 1.66265 0 0 1 .16693-.65507 1.76913 1.76913 0 0 1 .42864-.52922l12.02705-9.87275a2.72169 2.72169 0 0 0 -1.14858-4.76333zm.46174 3.924-12.027 9.87276a2.68281 2.68281 0 0 0 -.42336.42772 2.52685 2.52685 0 0 0 -.28948.45391 2.60723 2.60723 0 0 0 -.19723.517l.00118.00531a2.57268 2.57268 0 0 0 -.08564.57026l-.85514 18.23205a1.57925 1.57925 0 0 1 -1.26293 1.51569l-.01064.00236a1.58273 1.58273 0 0 1 -1.78924-.81255l-4.27133-7.90362a2.71289 2.71289 0 0 0 -2.22913-1.41689l-.00519.00115c-.06209-.00293-.124-.00595-.18464-.00367a2.64572 2.64572 0 0 0 -1.23539.30679 2.607 2.607 0 0 0 -.70984.54127l-20.8472 21.98172a1.63145 1.63145 0 0 1 -2.64486-.40048l-30.01455-60.95248a1.63542 1.63542 0 0 1 1.80965-2.31612l1.00577.21734 75.57211 16.30139a1.63482 1.63482 0 0 1 .69408 2.85914z" fill="#ccc"/><path d="m680.05842 600.95176-.44921.99045-.2775-.12241-.00118-.00531-63.69327-28.88106 53.18519 39.07482.00519-.00115.14083.10806-.64128.87693-.92476-.68075-52.41162-38.49985a1.08883 1.08883 0 0 1 .90758-1.93827.94853.94853 0 0 1 .17511.06145l63.74374 28.90892z" fill="#ccc"/><path d="m394.705 223.41153a3.75814 3.75814 0 0 0 -6.41362 1.96856l-3.136 20.7069a2.35166 2.35166 0 0 1 -.32043.86063 2.25849 2.25849 0 0 1 -.653.64565l-20.84635 13.59541a3.54494 3.54494 0 0 0 -1.48659 4.1802l.00946.02778a3.642 3.642 0 0 0 3.701 2.49026l12.30249-.53418a2.25523 2.25523 0 0 1 2.02379 1.09558 2.09366 2.09366 0 0 1 .22233 1.69324l-11.1636 39.25974a3.58139 3.58139 0 0 0 .71812 3.31236 3.77683 3.77683 0 0 0 3.17464 1.31265l92.8684-7.51371a3.76489 3.76489 0 0 0 2.25272-.97927 3.61019 3.61019 0 0 0 .167-5.17227l-.94135-.98754-72.4791-75.962zm-4.942 2.18076a2.18629 2.18629 0 0 1 .68372-1.27674 2.273 2.273 0 0 1 3.16927.1005l72.45558 75.93883.96475 1.01037a2.18081 2.18081 0 0 1 .59183 1.308 2.213 2.213 0 0 1 -2.04087 2.382l-92.86836 7.51377a2.27847 2.27847 0 0 1 -.77873-.073 2.19006 2.19006 0 0 1 -1.557-2.70229l11.16362-39.2594a3.444 3.444 0 0 0 .13635-1.19348l82.24335 33.85988a1.51459 1.51459 0 0 0 1.65467-.31618 1.44519 1.44519 0 0 0 -.0142-2.07158 1.29492 1.29492 0 0 0 -.19574-.15959l-78.949-53.56994a3.553 3.553 0 0 0 .20474-.78436l3.136-20.70687z" fill="#e6e6e6"/><path d="m394.705 223.41153a3.75814 3.75814 0 0 0 -6.41362 1.96856l-3.136 20.7069a2.35166 2.35166 0 0 1 -.32043.86063 2.25849 2.25849 0 0 1 -.653.64565l-20.84635 13.59541a3.54494 3.54494 0 0 0 -1.48659 4.1802l.00946.02778a3.642 3.642 0 0 0 3.701 2.49026l12.30249-.53418a2.25523 2.25523 0 0 1 2.02379 1.09558 2.09366 2.09366 0 0 1 .22233 1.69324l-11.1636 39.25974a3.58139 3.58139 0 0 0 .71812 3.31236 3.77683 3.77683 0 0 0 3.17464 1.31265l92.8684-7.51371a3.76489 3.76489 0 0 0 2.25272-.97927 3.61019 3.61019 0 0 0 .167-5.17227l-.94135-.98754-72.4791-75.962zm-4.942 2.18076a2.18629 2.18629 0 0 1 .68372-1.27674 2.273 2.273 0 0 1 3.16927.1005l72.45558 75.93883.96475 1.01037a2.18081 2.18081 0 0 1 .59183 1.308 2.213 2.213 0 0 1 -2.04087 2.382l-92.86835 7.51374a2.27847 2.27847 0 0 1 -.77873-.073 2.19007 2.19007 0 0 1 -1.557-2.70229l11.16363-39.2594a3.44423 3.44423 0 0 0 .13635-1.19348 3.51082 3.51082 0 0 0 -.51-1.63783c-.0401-.07158-.08727-.1409-.13448-.21054l-.00231-.00678a3.74454 3.74454 0 0 0 -3.23844-1.59263l-12.30955.53648a2.16924 2.16924 0 0 1 -2.21734-1.50291l-.00473-.01391a2.10447 2.10447 0 0 1 .8928-2.5056l20.84648-13.59509a3.515 3.515 0 0 0 .61051-.49319l.00708-.00231a3.51869 3.51869 0 0 0 .46914-.58511 3.37363 3.37363 0 0 0 .32992-.648 3.553 3.553 0 0 0 .20474-.78436l3.136-20.70687z" fill="#ccc"/><path d="m386.4222 247.08348 78.949 53.56993a1.29546 1.29546 0 0 1 .19574.15958 1.4446 1.4446 0 0 1 .32232 1.62311 1.50448 1.50448 0 0 1 -1.96279.76466l-82.24333-33.85989-1.45283-.59642.57959-1.34649.22641.0878.00231.00678 83.46511 34.355-78.88063-53.53096-.00708.00231-.33965-.23559.84854-1.20334z" fill="#ccc"/></g></svg>