<svg height="185.28363" viewBox="0 0 112.57829 185.28363" width="112.57829" xmlns="http://www.w3.org/2000/svg"><g fill="none" stroke="#000" stroke-width="10" transform="translate(-113.81447 -14.364814)"><path d="m221.11091 75.085786c.98474-2.954206 2.35078-64.869577-52.11091-54.585786s-61.22179 92.31905-36.30209 135.48123c24.9197 43.16219 60.648 50.46164 77.75352 20.834"/><path d="m196 83.5s18.70962-48.610014-20.37852-38.492786-41.13295 88.830516-27.46451 102.498946"/></g><text font-family="Basier Circle" font-size="74.666664" letter-spacing="0" stroke-width=".897543" transform="matrix(1.00015 0 0 .99985005 -113.81447 -14.364814)" word-spacing="0" x="148.46681" y="141.72353"><tspan font-family="Basier Circle" font-size="74.666664" stroke-width=".897543" x="148.46681" y="141.72353">C</tspan></text><path d="m198.59099 112.90901s12.17206 1.76466 3.88397 10.99519c-7.21727 8.03795 2.18012 13.65179 2.5 14.50481 0 0 3.70723 4.8487.74986 9.97102" fill="none" stroke="#000" stroke-width="5" transform="translate(-113.81447 -14.364814)"/></svg>